<?xml version="1.0" standalone="no"?>
<svg xmlns:xlink="http://www.w3.org/1999/xlink" id="wave" style="transform:rotate(0deg); transition: 0.3s" viewBox="0 0 1440 310" version="1.1" xmlns="http://www.w3.org/2000/svg"><defs><linearGradient id="sw-gradient-0" x1="0" x2="0" y1="1" y2="0"><stop stop-color="rgba(0, 171, 170, 1)" offset="0%"/><stop stop-color="rgba(0, 220, 220, 1)" offset="100%"/></linearGradient></defs><path style="transform:translate(0, 0px); opacity:1" fill="url(#sw-gradient-0)" d="M0,279L48,268.7C96,258,192,238,288,201.5C384,165,480,114,576,98.2C672,83,768,103,864,139.5C960,176,1056,227,1152,253.2C1248,279,1344,279,1440,258.3C1536,238,1632,196,1728,149.8C1824,103,1920,52,2016,31C2112,10,2208,21,2304,36.2C2400,52,2496,72,2592,103.3C2688,134,2784,176,2880,175.7C2976,176,3072,134,3168,139.5C3264,145,3360,196,3456,217C3552,238,3648,227,3744,227.3C3840,227,3936,238,4032,222.2C4128,207,4224,165,4320,129.2C4416,93,4512,62,4608,72.3C4704,83,4800,134,4896,129.2C4992,124,5088,62,5184,56.8C5280,52,5376,103,5472,134.3C5568,165,5664,176,5760,186C5856,196,5952,207,6048,201.5C6144,196,6240,176,6336,186C6432,196,6528,238,6624,248C6720,258,6816,238,6864,227.3L6912,217L6912,310L6864,310C6816,310,6720,310,6624,310C6528,310,6432,310,6336,310C6240,310,6144,310,6048,310C5952,310,5856,310,5760,310C5664,310,5568,310,5472,310C5376,310,5280,310,5184,310C5088,310,4992,310,4896,310C4800,310,4704,310,4608,310C4512,310,4416,310,4320,310C4224,310,4128,310,4032,310C3936,310,3840,310,3744,310C3648,310,3552,310,3456,310C3360,310,3264,310,3168,310C3072,310,2976,310,2880,310C2784,310,2688,310,2592,310C2496,310,2400,310,2304,310C2208,310,2112,310,2016,310C1920,310,1824,310,1728,310C1632,310,1536,310,1440,310C1344,310,1248,310,1152,310C1056,310,960,310,864,310C768,310,672,310,576,310C480,310,384,310,288,310C192,310,96,310,48,310L0,310Z"/></svg>