<?xml version="1.0" standalone="no"?>
<svg xmlns:xlink="http://www.w3.org/1999/xlink" id="wave" style="transform:rotate(180deg); transition: 0.3s" viewBox="0 0 1440 240" version="1.1" xmlns="http://www.w3.org/2000/svg"><defs><linearGradient id="sw-gradient-0" x1="0" x2="0" y1="1" y2="0"><stop stop-color="rgba(0, 171, 170, 1)" offset="0%"/><stop stop-color="rgba(0, 220, 220, 1)" offset="100%"/></linearGradient></defs><path style="transform:translate(0, 0px); opacity:1" fill="url(#sw-gradient-0)" d="M0,0L34.3,4C68.6,8,137,16,206,24C274.3,32,343,40,411,64C480,88,549,128,617,132C685.7,136,754,104,823,100C891.4,96,960,120,1029,112C1097.1,104,1166,64,1234,64C1302.9,64,1371,104,1440,124C1508.6,144,1577,144,1646,148C1714.3,152,1783,160,1851,156C1920,152,1989,136,2057,108C2125.7,80,2194,40,2263,44C2331.4,48,2400,96,2469,96C2537.1,96,2606,48,2674,40C2742.9,32,2811,64,2880,64C2948.6,64,3017,32,3086,36C3154.3,40,3223,80,3291,112C3360,144,3429,168,3497,172C3565.7,176,3634,160,3703,140C3771.4,120,3840,96,3909,88C3977.1,80,4046,88,4114,108C4182.9,128,4251,160,4320,168C4388.6,176,4457,160,4526,152C4594.3,144,4663,144,4731,132C4800,120,4869,96,4903,84L4937.1,72L4937.1,240L4902.9,240C4868.6,240,4800,240,4731,240C4662.9,240,4594,240,4526,240C4457.1,240,4389,240,4320,240C4251.4,240,4183,240,4114,240C4045.7,240,3977,240,3909,240C3840,240,3771,240,3703,240C3634.3,240,3566,240,3497,240C3428.6,240,3360,240,3291,240C3222.9,240,3154,240,3086,240C3017.1,240,2949,240,2880,240C2811.4,240,2743,240,2674,240C2605.7,240,2537,240,2469,240C2400,240,2331,240,2263,240C2194.3,240,2126,240,2057,240C1988.6,240,1920,240,1851,240C1782.9,240,1714,240,1646,240C1577.1,240,1509,240,1440,240C1371.4,240,1303,240,1234,240C1165.7,240,1097,240,1029,240C960,240,891,240,823,240C754.3,240,686,240,617,240C548.6,240,480,240,411,240C342.9,240,274,240,206,240C137.1,240,69,240,34,240L0,240Z"/></svg>