<?xml version="1.0" standalone="no"?>
<svg xmlns:xlink="http://www.w3.org/1999/xlink" id="wave" style="transform:rotate(0deg); transition: 0.3s" viewBox="0 0 1440 160" version="1.1" xmlns="http://www.w3.org/2000/svg"><defs><linearGradient id="sw-gradient-0" x1="0" x2="0" y1="1" y2="0"><stop stop-color="rgba(0, 171, 170, 1)" offset="0%"/><stop stop-color="rgba(0, 220, 220, 1)" offset="100%"/></linearGradient></defs><path style="transform:translate(0, 0px); opacity:1" fill="url(#sw-gradient-0)" d="M0,144L48,138.7C96,133,192,123,288,104C384,85,480,59,576,50.7C672,43,768,53,864,72C960,91,1056,117,1152,130.7C1248,144,1344,144,1440,133.3C1536,123,1632,101,1728,77.3C1824,53,1920,27,2016,16C2112,5,2208,11,2304,18.7C2400,27,2496,37,2592,53.3C2688,69,2784,91,2880,90.7C2976,91,3072,69,3168,72C3264,75,3360,101,3456,112C3552,123,3648,117,3744,117.3C3840,117,3936,123,4032,114.7C4128,107,4224,85,4320,66.7C4416,48,4512,32,4608,37.3C4704,43,4800,69,4896,66.7C4992,64,5088,32,5184,29.3C5280,27,5376,53,5472,69.3C5568,85,5664,91,5760,96C5856,101,5952,107,6048,104C6144,101,6240,91,6336,96C6432,101,6528,123,6624,128C6720,133,6816,123,6864,117.3L6912,112L6912,160L6864,160C6816,160,6720,160,6624,160C6528,160,6432,160,6336,160C6240,160,6144,160,6048,160C5952,160,5856,160,5760,160C5664,160,5568,160,5472,160C5376,160,5280,160,5184,160C5088,160,4992,160,4896,160C4800,160,4704,160,4608,160C4512,160,4416,160,4320,160C4224,160,4128,160,4032,160C3936,160,3840,160,3744,160C3648,160,3552,160,3456,160C3360,160,3264,160,3168,160C3072,160,2976,160,2880,160C2784,160,2688,160,2592,160C2496,160,2400,160,2304,160C2208,160,2112,160,2016,160C1920,160,1824,160,1728,160C1632,160,1536,160,1440,160C1344,160,1248,160,1152,160C1056,160,960,160,864,160C768,160,672,160,576,160C480,160,384,160,288,160C192,160,96,160,48,160L0,160Z"/></svg>