<?xml version="1.0" standalone="no"?>
<svg xmlns:xlink="http://www.w3.org/1999/xlink" id="wave" style="transform:rotate(180deg); transition: 0.3s" viewBox="0 0 1440 260" version="1.1" xmlns="http://www.w3.org/2000/svg"><defs><linearGradient id="sw-gradient-0" x1="0" x2="0" y1="1" y2="0"><stop stop-color="rgba(117, 139, 253, 1)" offset="0%"/><stop stop-color="rgba(174, 184, 254, 1)" offset="100%"/></linearGradient></defs><path style="transform:translate(0, 0px); opacity:1" fill="url(#sw-gradient-0)" d="M0,0L60,8.7C120,17,240,35,360,65C480,95,600,139,720,169C840,199,960,217,1080,203.7C1200,191,1320,147,1440,134.3C1560,121,1680,139,1800,138.7C1920,139,2040,121,2160,125.7C2280,130,2400,156,2520,143C2640,130,2760,78,2880,60.7C3000,43,3120,61,3240,56.3C3360,52,3480,26,3600,52C3720,78,3840,156,3960,173.3C4080,191,4200,147,4320,117C4440,87,4560,69,4680,82.3C4800,95,4920,139,5040,138.7C5160,139,5280,95,5400,99.7C5520,104,5640,156,5760,169C5880,182,6000,156,6120,156C6240,156,6360,182,6480,182C6600,182,6720,156,6840,156C6960,156,7080,182,7200,177.7C7320,173,7440,139,7560,117C7680,95,7800,87,7920,73.7C8040,61,8160,43,8280,56.3C8400,69,8520,113,8580,134.3L8640,156L8640,260L8580,260C8520,260,8400,260,8280,260C8160,260,8040,260,7920,260C7800,260,7680,260,7560,260C7440,260,7320,260,7200,260C7080,260,6960,260,6840,260C6720,260,6600,260,6480,260C6360,260,6240,260,6120,260C6000,260,5880,260,5760,260C5640,260,5520,260,5400,260C5280,260,5160,260,5040,260C4920,260,4800,260,4680,260C4560,260,4440,260,4320,260C4200,260,4080,260,3960,260C3840,260,3720,260,3600,260C3480,260,3360,260,3240,260C3120,260,3000,260,2880,260C2760,260,2640,260,2520,260C2400,260,2280,260,2160,260C2040,260,1920,260,1800,260C1680,260,1560,260,1440,260C1320,260,1200,260,1080,260C960,260,840,260,720,260C600,260,480,260,360,260C240,260,120,260,60,260L0,260Z"/></svg>